<?xml version="1.0" encoding="UTF-8" standalone="no"?>
<svg
   xmlns:dc="http://purl.org/dc/elements/1.1/"
   xmlns:cc="http://creativecommons.org/ns#"
   xmlns:rdf="http://www.w3.org/1999/02/22-rdf-syntax-ns#"
   xmlns:svg="http://www.w3.org/2000/svg"
   xmlns="http://www.w3.org/2000/svg"
   xmlns:sodipodi="http://sodipodi.sourceforge.net/DTD/sodipodi-0.dtd"
   xmlns:inkscape="http://www.inkscape.org/namespaces/inkscape"
   width="117"
   height="103"
   viewBox="0 0 117 103"
   fill="none"
   version="1.1"
   id="svg64"
   sodipodi:docname="desenvolvimento.svg"
   inkscape:version="0.92.4 5da689c313, 2019-01-14">
  <metadata
     id="metadata70">
    <rdf:RDF>
      <cc:Work
         rdf:about="">
        <dc:format>image/svg+xml</dc:format>
        <dc:type
           rdf:resource="http://purl.org/dc/dcmitype/StillImage" />
      </cc:Work>
    </rdf:RDF>
  </metadata>
  <defs
     id="defs68" />
  <sodipodi:namedview
     pagecolor="#ffffff"
     bordercolor="#666666"
     borderopacity="1"
     objecttolerance="10"
     gridtolerance="10"
     guidetolerance="10"
     inkscape:pageopacity="0"
     inkscape:pageshadow="2"
     inkscape:window-width="640"
     inkscape:window-height="480"
     id="namedview66"
     showgrid="false"
     inkscape:zoom="2.2478632"
     inkscape:cx="58.5"
     inkscape:cy="51.5"
     inkscape:window-x="0"
     inkscape:window-y="0"
     inkscape:window-maximized="0"
     inkscape:current-layer="svg64" />
  <path
     style="opacity:0.16319999;fill:#53504e"
     inkscape:connector-curvature="0"
     id="path2"
     d="m 31.883,30.0671 6.3565,-6.3573 -6.3565,-6.3573 1.9378,-1.9376 8.2937,8.2951 -8.2937,8.295 z" />
  <path
     style="opacity:0.16319999;fill:#53504e"
     inkscape:connector-curvature="0"
     id="path4"
     d="m 13.7325,24.1633 h 2.5837 v -2.5921 h -2.5837 z m 12.9704,-2.5921 h -2.5835 v 2.5921 h 2.5836 z m -7.7771,2.5921 h 2.5837 v -2.5921 h -2.5837 z" />
  <path
     style="opacity:0.16319999;fill:#53504e"
     inkscape:connector-curvature="0"
     id="path6"
     d="M 10.2315,30.0022 3.86905,23.6449 10.2256,17.2876 8.28722,15.3499 0,23.6449 8.29374,31.94 Z" />
  <path
     style="fill:#ffb9b9"
     inkscape:connector-curvature="0"
     id="path8"
     d="m 41.3094,21.9962 c 0,0 -1.9887,-1.5148 -2.1397,-0.9596 -0.151,0.5553 1.4592,1.8174 1.4592,1.8174 z" />
  <path
     style="opacity:0.02999998;fill:#000000"
     inkscape:connector-curvature="0"
     id="path10"
     d="m 41.3094,21.9962 c 0,0 -1.9887,-1.5148 -2.1397,-0.9596 -0.151,0.5553 1.4592,1.8174 1.4592,1.8174 z" />
  <path
     style="fill:#e84300"
     inkscape:connector-curvature="0"
     id="path12"
     d="m 31.883,28.8357 6.3565,-6.3573 -6.3565,-6.3573 1.9378,-1.9376 8.2937,8.295 -8.2937,8.2951 z" />
  <path
     style="fill:#e84300"
     inkscape:connector-curvature="0"
     id="path14"
     d="m 13.7325,22.932 h 2.5837 v -2.5922 h -2.5837 z m 12.9704,-2.5922 h -2.5835 v 2.5922 h 2.5836 z m -7.7771,2.5922 h 2.5837 v -2.5922 h -2.5837 z" />
  <path
     style="fill:#e84300"
     inkscape:connector-curvature="0"
     id="path16"
     d="M 10.2315,28.7709 3.86905,22.4136 10.2256,16.0563 8.28722,14.1185 0,22.4136 l 8.29374,8.295 z" />
  <path
     style="fill:#ba9197"
     inkscape:connector-curvature="0"
     id="path18"
     d="m 63.2575,28.533 c 6.0176,0 10.8959,-4.8942 10.8959,-10.9316 0,-6.0373 -4.8783,-10.9316 -10.8959,-10.9316 -6.0177,0 -10.8959,4.8943 -10.8959,10.9316 0,6.0374 4.8782,10.9316 10.8959,10.9316 z" />
  <path
     style="fill:#ba9197"
     inkscape:connector-curvature="0"
     id="path20"
     d="m 55.125,23.0673 c 0,0 2.0529,15.5254 -1.1054,17.2688 -3.1582,1.7435 18.7916,1.9012 18.7916,1.9012 0,0 -4.8953,-13.4665 -2.6846,-17.5861 z" />
  <path
     style="fill:#e84300"
     inkscape:connector-curvature="0"
     id="path22"
     d="m 88.8391,42.3156 -1.8255,8.3397 -3.8599,17.6441 -0.1155,0.9662 -1.3321,11.1865 -0.8861,7.4313 -0.5941,4.9919 c -3.6124,1.8627 -6.2306,3.1486 -6.2306,3.1486 0,0 -0.2252,-1.1328 -0.5883,-2.5822 -2.5352,0.7626 -7.2263,2.0277 -11.2017,2.2804 1.4476,1.6189 2.1129,3.1396 1.2105,4.262 -2.7233,3.3839 -13.9666,-3.7045 -17.899,-6.3477 -0.0916,0.6329 -0.1263,1.2727 -0.1038,1.9118 L 42.4037,93.2261 42.7015,87.8834 43.2038,78.8436 43.835,67.507 C 43.636,67.0216 43.4692,66.5235 43.3357,66.016 42.4141,62.7277 41.2954,56.1615 40.4374,50.6553 39.747,46.2238 39.2284,42.4792 39.1187,41.6824 39.1039,41.5783 39.0965,41.5248 39.0965,41.5248 l 16.6589,-7.3853 c 1.1839,2.7546 6.7121,3.5827 6.7121,3.5827 4.58,-0.3167 8.1702,-2.7398 8.1702,-2.7398 z" />
  <path
     style="fill:#a0616a"
     inkscape:connector-curvature="0"
     id="path24"
     d="m 75.2591,92.856 c 0,0 -0.7053,0.2423 -1.8521,0.5857 -2.5353,0.7626 -7.2264,2.0277 -11.2018,2.2804 -3.4227,0.22 -6.315,-0.3092 -6.844,-2.5495 -0.2267,-0.9633 0.0948,-1.7556 0.7957,-2.4067 2.0921,-1.9459 7.5567,-2.6431 11.8907,-2.8825 1.2239,-0.0669 2.3559,-0.0981 3.2983,-0.11 1.6002,-0.0208 2.6493,0.0119 2.6493,0.0119 l 0.0252,0.0981 z" />
  <path
     style="fill:#2f2e41"
     inkscape:connector-curvature="0"
     id="path26"
     d="M 54.1931,7.26094 52.1559,6.44333 c 0,0 4.2598,-4.70514 10.1863,-4.29619 L 60.6753,0.306029 c 0,0 4.0747,-1.636559 7.779,2.659471 1.9471,2.25824 4.2,4.91281 5.6045,7.903 h 2.1819 l -0.9107,2.0117 3.187,2.0116 -3.2711,-0.3614 c 0.1949,1.1016 0.2249,2.2262 0.0889,3.3366 -0.1403,1.1109 -0.7053,2.1236 -1.5757,2.8245 0,0 -2.5266,-5.2476 -2.5266,-6.0652 v 2.0457 c 0,0 -2.0372,-1.8412 -2.0372,-3.0686 l -1.1113,1.432 -0.5557,-2.2502 -6.8526,2.2502 1.1113,-1.8411 -4.2598,0.6136 1.667,-2.2502 c 0,0 -4.8156,2.6595 -5.0007,4.9097 -0.185,2.2502 -1.5946,4.3826 -1.5946,4.3826 0,0 -3.7769,-10.5205 1.5942,-13.58906 z" />
  <path
     style="fill:#e84300"
     inkscape:connector-curvature="0"
     id="path28"
     d="m 100.682,80.6557 c -1.1095,1.2071 -3.8595,3.0252 -7.1934,4.9934 -1.2402,0.7314 -2.5604,1.4851 -3.9073,2.2343 -3.2138,1.7884 -6.5788,3.5604 -9.3555,4.9919 -3.6124,1.8627 -6.2306,3.1486 -6.2306,3.1486 0,0 -0.2252,-1.1328 -0.5882,-2.5822 -0.486,-1.94 -1.218,-4.4478 -1.9811,-5.5583 -0.0267,-0.0386 -0.0533,-0.0743 -0.08,-0.11 -0.2222,-0.2928 -0.446,-0.4638 -0.6668,-0.4638 l 11.0269,-6.8575 4.7652,-2.9642 -3.4331,-8.2222 -4.3059,-10.3139 2.599,-8.2965 2.6122,-8.3396 h 4.8956 c 0,0 1.621,3.5499 3.6939,8.5002 0.3097,0.7403 0.6297,1.5118 0.9557,2.3086 4.2644,10.406 9.5814,24.9364 7.1934,27.5312 z" />
  <path
     style="fill:#a0616a"
     inkscape:connector-curvature="0"
     id="path30"
     d="M 63.4158,99.9841 C 60.6924,103.368 49.4492,96.2796 45.5167,93.6365 44.6603,93.0612 44.1506,92.697 44.1506,92.697 l 3.5976,-4.8135 1.1394,-1.5238 c 0,0 1.0194,0.5426 2.5263,1.4257 0.0549,0.0327 0.1097,0.0654 0.166,0.0981 1.2994,0.7656 2.9308,1.766 4.577,2.8824 2.2715,1.5416 4.5681,3.3002 6.0484,4.9562 1.4476,1.6189 2.1129,3.1396 1.2105,4.262 z" />
  <path
     style="fill:#e84300"
     inkscape:connector-curvature="0"
     id="path32"
     d="m 51.4139,87.7853 c -0.4021,-0.0015 -0.8036,0.0313 -1.2002,0.0982 -3.4064,0.5872 -4.411,3.6807 -4.697,5.753 -0.0915,0.6328 -0.1262,1.2726 -0.1037,1.9117 l -3.0094,-2.322 -1.0964,-0.8459 c -2.639,-0.9231 -4.9904,-2.5628 -7.0293,-4.4968 -1.7687,-1.7075 -3.3553,-3.5953 -4.7341,-5.6327 -1.3732,-2.008 -2.5975,-4.1148 -3.6628,-6.303 -0.2972,-0.6107 -0.457,-1.2794 -0.468,-1.9589 -0.011,-0.6795 0.127,-1.3531 0.4043,-1.9731 l 3.7265,-8.3322 5.4468,-12.178 c 0.0395,-0.2899 0.0835,-0.5733 0.1319,-0.8503 1.0802,-6.2139 3.9739,-8.9729 3.9739,-8.9729 h 2.2108 l 1.4787,8.9729 1.8373,11.1478 -1.2876,4.2129 -2.9752,9.7296 2.8434,3.098 z" />
  <path
     style="fill:#ffffff"
     inkscape:connector-curvature="0"
     id="path34"
     d="m 53.9159,61.812 1.89,2.2122 c 0.7022,-0.1338 1.4353,-0.2921 2.1905,-0.4695 l -0.5427,-1.7427 1.3273,1.5535 c 8.0013,-1.9743 17.9179,-5.8125 17.9179,-5.8125 0,0 -10.7064,0.7879 -18.7004,-0.9647 -3.537,-0.7752 -7.1761,0.9839 -8.6274,4.3111 -0.8437,1.9342 -0.7112,3.6098 2.2809,3.6098 1.0111,-0.0173 2.0193,-0.1124 3.0158,-0.2845 z" />
  <path
     style="fill:#5a524e"
     inkscape:connector-curvature="0"
     id="path36"
     d="m 97.0004,98.1706 v 0.9023 c 5e-4,0.2477 -0.0452,0.4932 -0.1348,0.724 -0.0398,0.1028 -0.0879,0.2023 -0.1437,0.2971 -0.1766,0.298 -0.4272,0.544 -0.7272,0.715 -0.3001,0.171 -0.6392,0.261 -0.9842,0.26 H 28.8446 c -0.3451,10e-4 -0.6842,-0.089 -0.9842,-0.26 -0.3001,-0.171 -0.5506,-0.417 -0.7272,-0.715 -0.0559,-0.0948 -0.104,-0.1943 -0.1437,-0.2971 -0.0897,-0.2308 -0.1354,-0.4763 -0.1349,-0.724 v -0.9023 c -10e-5,-0.2622 0.0514,-0.5219 0.1513,-0.7641 0.1,-0.2423 0.2466,-0.4624 0.4314,-0.6478 0.1848,-0.1854 0.4042,-0.3325 0.6457,-0.4328 0.2414,-0.1003 0.5002,-0.1519 0.7616,-0.1518 h 3.8143 v -0.4207 c 0,-0.0109 0.0021,-0.0218 0.0063,-0.0319 0.0042,-0.0101 0.0103,-0.0193 0.018,-0.027 0.0077,-0.0077 0.0169,-0.0139 0.0269,-0.018 0.0101,-0.0042 0.0209,-0.0064 0.0318,-0.0063 h 1.99 c 0.0109,-10e-5 0.0217,0.0021 0.0317,0.0063 0.0101,0.0041 0.0193,0.0103 0.027,0.018 0.0077,0.0077 0.0138,0.0169 0.018,0.027 0.0041,0.0101 0.0062,0.021 0.0062,0.0319 v 0.4207 h 1.2432 v -0.4207 c 0,-0.0109 0.0021,-0.0218 0.0063,-0.0319 0.0041,-0.0101 0.0102,-0.0193 0.0179,-0.027 0.0078,-0.0077 0.0169,-0.0139 0.027,-0.018 0.0101,-0.0042 0.0209,-0.0064 0.0318,-0.0063 h 1.9899 c 0.0109,-10e-5 0.0217,0.0021 0.0318,0.0063 0.0101,0.0041 0.0192,0.0103 0.0269,0.018 0.0077,0.0077 0.0138,0.0169 0.018,0.027 0.0042,0.0101 0.0063,0.021 0.0063,0.0319 v 0.4207 h 1.2446 v -0.4207 c 0,-0.0109 0.0021,-0.0218 0.0063,-0.0319 0.0042,-0.0101 0.0103,-0.0193 0.018,-0.027 0.0077,-0.0077 0.0168,-0.0139 0.0269,-0.018 0.0101,-0.0042 0.0209,-0.0064 0.0318,-0.0063 h 1.9899 c 0.0109,-10e-5 0.0217,0.0021 0.0318,0.0063 0.0101,0.0041 0.0192,0.0103 0.027,0.018 0.0077,0.0077 0.0138,0.0169 0.0179,0.027 0.0042,0.0101 0.0063,0.021 0.0063,0.0319 v 0.4207 h 1.2432 v -0.4207 c -10e-5,-0.0109 0.0021,-0.0218 0.0062,-0.0319 0.0042,-0.0101 0.0103,-0.0193 0.018,-0.027 0.0077,-0.0077 0.0169,-0.0139 0.027,-0.018 0.01,-0.0042 0.0208,-0.0064 0.0317,-0.0063 h 1.99 c 0.0109,-10e-5 0.0217,0.0021 0.0318,0.0063 0.01,0.0041 0.0192,0.0103 0.0269,0.018 0.0077,0.0077 0.0138,0.0169 0.018,0.027 0.0041,0.0101 0.0063,0.021 0.0063,0.0319 v 0.4207 h 1.2431 v -0.4207 c 0,-0.0109 0.0021,-0.0218 0.0063,-0.0319 0.0042,-0.0101 0.0103,-0.0193 0.018,-0.027 0.0077,-0.0077 0.0168,-0.0139 0.0269,-0.018 0.0101,-0.0042 0.0209,-0.0064 0.0318,-0.0063 h 1.9899 c 0.0109,-10e-5 0.0217,0.0021 0.0318,0.0063 0.0101,0.0041 0.0192,0.0103 0.027,0.018 0.0077,0.0077 0.0138,0.0169 0.0179,0.027 0.0042,0.0101 0.0063,0.021 0.0063,0.0319 v 0.4207 h 1.2447 v -0.4207 c -1e-4,-0.0109 0.0021,-0.0218 0.0062,-0.0319 0.0042,-0.0101 0.0103,-0.0193 0.018,-0.027 0.0077,-0.0077 0.0169,-0.0139 0.027,-0.018 0.01,-0.0042 0.0208,-0.0064 0.0317,-0.0063 h 1.99 c 0.0109,-10e-5 0.0217,0.0021 0.0318,0.0063 0.01,0.0041 0.0192,0.0103 0.0269,0.018 0.0077,0.0077 0.0138,0.0169 0.018,0.027 0.0041,0.0101 0.0063,0.021 0.0062,0.0319 v 0.4207 h 1.2432 v -0.4207 c 0,-0.0109 0.0021,-0.0218 0.0063,-0.0319 0.0041,-0.0101 0.0103,-0.0193 0.018,-0.027 0.0077,-0.0077 0.0168,-0.0139 0.0269,-0.018 0.0101,-0.0042 0.0209,-0.0064 0.0318,-0.0063 h 15.5876 c 0.0109,-10e-5 0.0217,0.0021 0.0318,0.0063 0.0101,0.0041 0.0192,0.0103 0.0269,0.018 0.0077,0.0077 0.0138,0.0169 0.018,0.027 0.0042,0.0101 0.0063,0.021 0.0063,0.0319 v 0.4207 h 1.2446 v -0.4207 c 0,-0.0109 0.0021,-0.0218 0.0063,-0.0319 0.0042,-0.0101 0.0103,-0.0193 0.018,-0.027 0.0077,-0.0077 0.0169,-0.0139 0.0269,-0.018 0.0101,-0.0042 0.0209,-0.0064 0.0318,-0.0063 h 1.9899 c 0.022,2e-4 0.0429,0.009 0.0585,0.0246 0.0155,0.0156 0.0243,0.0366 0.0245,0.0586 v 0.4207 h 1.2432 v -0.4207 c 0,-0.0109 0.0021,-0.0218 0.0063,-0.0319 0.0041,-0.0101 0.0102,-0.0193 0.0179,-0.027 0.0077,-0.0077 0.0169,-0.0139 0.027,-0.018 0.0101,-0.0042 0.0208,-0.0064 0.0317,-0.0063 h 1.99 c 0.0109,-10e-5 0.0217,0.0021 0.0318,0.0063 0.01,0.0041 0.0192,0.0103 0.0269,0.018 0.0077,0.0077 0.0138,0.0169 0.018,0.027 0.0042,0.0101 0.0063,0.021 0.0063,0.0319 v 0.4207 h 1.2431 v -0.4207 c 0,-0.0109 0.0021,-0.0218 0.0063,-0.0319 0.0042,-0.0101 0.0103,-0.0193 0.018,-0.027 0.0077,-0.0077 0.0169,-0.0139 0.0269,-0.018 0.0101,-0.0042 0.0209,-0.0064 0.0318,-0.0063 h 1.9899 c 0.0109,-10e-5 0.0217,0.0021 0.0318,0.0063 0.0101,0.0041 0.0193,0.0103 0.027,0.018 0.0077,0.0077 0.0138,0.0169 0.0179,0.027 0.0042,0.0101 0.0063,0.021 0.0063,0.0319 v 0.4207 h 1.2447 v -0.4207 c -1e-4,-0.0109 0.0021,-0.0218 0.0062,-0.0319 0.0042,-0.0101 0.0103,-0.0193 0.018,-0.027 0.0077,-0.0077 0.0169,-0.0139 0.027,-0.018 0.01,-0.0042 0.0208,-0.0064 0.0317,-0.0063 h 1.99 c 0.0218,2e-4 0.0426,0.0091 0.0578,0.0247 0.0153,0.0156 0.0238,0.0367 0.0237,0.0585 v 0.4207 h 1.2446 v -0.4207 c 0,-0.0109 0.0021,-0.0218 0.0063,-0.0319 0.0042,-0.0101 0.0103,-0.0193 0.018,-0.027 0.0077,-0.0077 0.0168,-0.0139 0.0269,-0.018 0.0101,-0.0042 0.0209,-0.0064 0.0318,-0.0063 h 1.9899 c 0.0109,-10e-5 0.0217,0.0021 0.0318,0.0063 0.0101,0.0041 0.0192,0.0103 0.0269,0.018 0.0078,0.0077 0.0139,0.0169 0.018,0.027 0.0042,0.0101 0.0063,0.021 0.0063,0.0319 v 0.4207 h 1.2432 v -0.4207 c -10e-5,-0.0109 0.0021,-0.0218 0.0062,-0.0319 0.0042,-0.0101 0.0103,-0.0193 0.018,-0.027 0.0077,-0.0077 0.0169,-0.0139 0.027,-0.018 0.01,-0.0042 0.0208,-0.0064 0.0317,-0.0063 h 1.99 c 0.0109,-10e-5 0.0217,0.0021 0.0318,0.0063 0.01,0.0041 0.0192,0.0103 0.0269,0.018 0.0077,0.0077 0.0138,0.0169 0.018,0.027 0.0041,0.0101 0.0063,0.021 0.0063,0.0319 v 0.4207 h 5.8038 c 0.2614,-10e-5 0.5202,0.0515 0.7616,0.1518 0.2415,0.1003 0.4609,0.2474 0.6457,0.4328 0.1848,0.1854 0.3314,0.4055 0.4314,0.6478 0.0999,0.2422 0.1514,0.5019 0.1513,0.7641 z" />
  <path
     style="fill:#3f3d56;stroke:#ebebeb"
     inkscape:connector-curvature="0"
     id="path38"
     d="M 116.24,99.7969 H 7.63086 v 0.2971 H 116.24 Z" />
  <path
     style="fill:#5a524e"
     inkscape:connector-curvature="0"
     id="path40"
     d="M 91.6726,60.1695 H 67.0105 V 59.6594 H 55.8278 v 0.5101 H 31.064 c -0.4423,0 -0.8665,0.1763 -1.1793,0.49 -0.3128,0.3138 -0.4886,0.7393 -0.4888,1.1831 v 33.8811 c 0,0.2198 0.0432,0.4375 0.127,0.6405 0.0839,0.2031 0.2067,0.3876 0.3617,0.543 0.1549,0.1554 0.3388,0.2787 0.5412,0.3628 0.2024,0.0842 0.4193,0.1274 0.6384,0.1274 h 60.6084 c 0.2191,0 0.436,-0.0432 0.6384,-0.1274 0.2024,-0.0841 0.3863,-0.2074 0.5412,-0.3628 0.1549,-0.1554 0.2778,-0.3399 0.3617,-0.543 0.0838,-0.203 0.127,-0.4207 0.127,-0.6405 V 61.8426 c 0,-0.2198 -0.0432,-0.4374 -0.127,-0.6405 C 93.13,60.999 93.0071,60.8145 92.8522,60.6591 92.6973,60.5037 92.5134,60.3804 92.311,60.2963 92.1086,60.2122 91.8917,60.1689 91.6726,60.1689 Z" />
  <path
     style="stroke:#d0cde1;stroke-width:2;stroke-miterlimit:10"
     inkscape:connector-curvature="0"
     id="path42"
     stroke-miterlimit="10"
     d="m 61.417,75.7145 c 2.0458,0 3.7043,-1.6639 3.7043,-3.7165 0,-2.0525 -1.6585,-3.7164 -3.7043,-3.7164 -2.0458,0 -3.7042,1.6639 -3.7042,3.7164 0,2.0526 1.6584,3.7165 3.7042,3.7165 z" />
  <path
     style="fill:#d0cde1"
     inkscape:connector-curvature="0"
     id="path44"
     d="m 60.2316,77.0524 c 2.0459,0 3.7043,-1.6639 3.7043,-3.7165 0,-2.0525 -1.6584,-3.7164 -3.7043,-3.7164 -2.0458,0 -3.7043,1.6639 -3.7043,3.7164 0,2.0526 1.6585,3.7165 3.7043,3.7165 z" />
  <path
     style="fill:#d0cde1"
     inkscape:connector-curvature="0"
     id="path46"
     d="m 14.7351,98.2949 h -4.1488 v 4.1621 h 4.1488 z" />
  <path
     style="fill:#3f3d56;stroke:#ebebeb"
     inkscape:connector-curvature="0"
     id="path48"
     d="m 12.2166,95.0245 v 5.0545 h 5.0378 v -5.0545 z m 4.8185,4.8344 h -4.6007 v -4.6144 h 4.6007 z" />
  <path
     style="fill:#d0cde1"
     inkscape:connector-curvature="0"
     id="path50"
     d="m 110.75,98.2949 h -4.149 v 4.1621 h 4.149 z" />
  <path
     style="fill:#3f3d56;stroke:#ebebeb"
     inkscape:connector-curvature="0"
     id="path52"
     d="m 108.232,95.0245 v 5.0545 h 5.037 v -5.0545 z m 4.818,4.8344 h -4.601 v -4.6144 h 4.601 z" />
  <path
     style="opacity:0.11100003;fill:#ff683a"
     inkscape:connector-curvature="0"
     id="path54"
     d="m 20.9801,89.1572 c 0.1382,4.7496 -2.6278,6.4902 -6.0992,6.5919 -0.0806,0.0024 -0.1609,0.0038 -0.2408,0.0043 -0.161,0.0012 -0.3204,-0.0015 -0.4783,-0.008 C 11.0224,95.6146 8.53724,93.9426 8.40863,89.5256 8.27528,84.9544 13.9308,79.0155 14.3552,78.5758 h 7e-4 l 0.0243,-0.0251 c 0,0 6.4616,5.8579 6.5999,10.6065 z" />
  <path
     style="fill:#3f3d56;stroke:#ebebeb"
     inkscape:connector-curvature="0"
     id="path56"
     d="m 14.6308,95.0292 2.2051,-3.2899 -2.2006,3.6439 0.0046,0.3702 c -0.1611,0.0011 -0.3205,-0.0015 -0.4783,-0.0081 l 0.1092,-4.7588 -0.003,-0.0367 0.004,-0.0071 0.0105,-0.4497 -2.4152,-3.5177 2.4121,3.1813 0.0086,0.095 0.0827,-3.5955 -2.0852,-3.647 2.0917,3.0154 -0.0218,-7.4489 v -0.0241 0.0244 l 0.1384,5.8706 1.9009,-2.3846 -1.8941,2.8897 0.0415,3.2161 1.7493,-3.1388 -1.7428,3.6115 0.0231,1.7884 2.5441,-4.3722 -2.5362,4.9961 z" />
  <path
     style="opacity:0.11100003;fill:#ff683a"
     inkscape:connector-curvature="0"
     id="path58"
     d="m 116.995,89.1572 c 0.138,4.7496 -2.628,6.4902 -6.099,6.5919 -0.081,0.0024 -0.161,0.0038 -0.241,0.0043 -0.161,0.0012 -0.32,-0.0015 -0.478,-0.008 -3.14,-0.1308 -5.625,-1.8028 -5.753,-6.2198 -0.134,-4.5712 5.522,-10.5101 5.946,-10.9498 h 10e-4 l 0.024,-0.0251 c 0,0 6.462,5.8579 6.6,10.6065 z" />
  <path
     style="fill:#3f3d56;stroke:#ebebeb"
     inkscape:connector-curvature="0"
     id="path60"
     d="m 110.646,95.0292 2.205,-3.2899 -2.201,3.6439 0.005,0.3702 c -0.161,0.0011 -0.321,-0.0015 -0.478,-0.0081 l 0.109,-4.7588 -0.003,-0.0367 0.004,-0.0071 0.01,-0.4497 -2.415,-3.5177 2.412,3.1813 0.009,0.095 0.082,-3.5955 -2.085,-3.647 2.092,3.0154 -0.022,-7.4489 v -0.0241 0.0244 l 0.139,5.8706 1.901,-2.3846 -1.895,2.8897 0.042,3.2161 1.749,-3.1388 -1.742,3.6115 0.023,1.7884 2.544,-4.3722 -2.537,4.9961 z" />
</svg>
